# 3ds Max Wavefront OBJ Exporter v0.97b - (c)2007 guruware
# File Created: 21.10.2014 14:38:00

mtllib ceiling.mtl

#
# object Box017
#

v  -197.5449 150.8300 -1113.5138
v  149.6631 113.2969 -1113.5138
v  149.8484 110.8240 14.3369
v  -197.7546 150.8300 14.3369
v  362.5027 106.7066 14.3369
v  362.5027 112.3168 14.3369
v  -198.1033 159.7495 14.8658
v  362.5027 106.8245 -146.9460
v  362.5027 112.2589 -146.9460
v  -197.8055 159.5770 -1113.5138
v  362.1320 111.9576 -1113.5138
v  362.1320 116.8736 -1113.5138
v  420.4516 89.5702 -1113.5176
v  420.7122 112.3636 -1113.5176
v  420.8223 112.2354 -146.9498
v  420.8223 89.5702 -146.9498
# 16 vertices

vn -0.1088 -0.9941 -0.0018
vn -0.0579 -0.9983 -0.0035
vn -0.0663 -0.9978 -0.0013
vn -0.1143 -0.9934 -0.0000
vn 0.0000 0.0000 1.0000
vn -0.0000 -0.0006 1.0000
vn -0.0040 -0.0578 0.9983
vn -0.0041 -0.0594 0.9982
vn 1.0000 0.0000 -0.0000
vn 0.0000 0.0000 -1.0000
vn -0.9996 -0.0298 -0.0003
vn -0.9992 -0.0391 -0.0002
vn -0.9992 -0.0390 -0.0002
vn 0.9999 -0.0113 -0.0001
vn 0.9999 -0.0114 -0.0001
vn 1.0000 -0.0002 -0.0004
vn 1.0000 0.0000 -0.0004
vn -0.3218 -0.9468 -0.0024
vn -0.0001 0.0000 -1.0000
vn 0.0388 0.9992 0.0024
vn 0.0001 -0.0000 1.0000
vn -0.0063 -1.0000 -0.0053
vn -0.0256 -0.9997 -0.0010
vn -0.0203 -0.9998 -0.0020
vn 0.0805 0.9967 0.0021
vn 0.0843 0.9964 -0.0004
# 26 vertex normals

vt 1.0000 1.0000 0.0000
vt 0.5000 1.0000 0.0000
vt 0.5000 0.0000 0.0000
vt 1.0000 0.0000 0.0000
vt 0.0000 0.0000 0.0000
vt 0.0000 1.0000 0.0000
vt 0.0000 0.5000 0.0000
vt 1.0000 0.5000 0.0000
# 8 texture coords

g Box017
usemtl wire_228184153
s 2
f 1/1/1 2/2/2 3/3/3 4/4/4 
s 8
f 3/3/5 5/4/5 6/1/6 4/5/7 
f 4/5/7 6/1/6 7/6/8 
s 16
f 8/3/9 9/2/9 6/6/9 5/5/9 
s 32
f 2/3/10 1/4/10 10/1/10 11/5/10 
f 11/5/10 10/1/10 12/6/10 
s 64
f 1/5/11 4/4/12 7/1/13 10/6/11 
s 16
f 13/4/14 14/1/15 15/2/16 16/3/17 
s off
f 8/7/18 11/6/18 13/4/18 16/3/18 
f 11/5/19 12/6/19 14/1/19 13/4/19 
f 12/1/20 9/8/20 15/2/20 14/1/20 
f 9/2/21 8/3/21 16/3/21 15/2/21 
s 2
f 2/2/2 11/6/22 8/7/23 5/5/24 
f 2/2/2 5/5/24 3/3/3 
s off
f 9/2/25 12/1/25 10/1/25 7/1/25 
f 6/1/26 9/2/26 7/1/26 
# 12 polygons - 4 triangles

