# 3ds Max Wavefront OBJ Exporter v0.97b - (c)2007 guruware
# File Created: 21.10.2014 14:36:22

mtllib roof.mtl

#
# object Box018
#

v  -360.2080 173.1199 64.1976
v  -360.2080 175.3633 -1153.1671
v  425.7392 111.8389 -1153.1671
v  425.7392 109.1949 64.1976
v  -360.2080 177.0569 64.1976
v  425.7392 113.1319 64.1976
v  425.7392 115.7759 -1153.1671
v  -360.2080 178.1786 -544.4847
v  -360.2080 179.3003 -1153.1671
v  -669.2313 174.2416 -544.4847
v  -669.2313 178.1786 -544.4847
v  -561.8741 179.3003 -1153.1671
v  -561.8741 175.3633 -1153.1671
v  -543.0793 173.1199 64.1976
v  -543.0793 174.2416 -544.4847
v  -494.9565 175.3633 -1153.1671
v  -543.0793 177.0569 64.1976
v  -543.0793 178.1786 -544.4847
v  -494.9565 179.3003 -1153.1671
# 19 vertices

vn -0.0809 -0.9967 -0.0020
vn -0.0806 -0.9967 -0.0018
vn -0.0807 -0.9967 -0.0020
vn -0.0811 -0.9967 -0.0022
vn 0.0809 0.9967 0.0020
vn 0.0811 0.9967 0.0022
vn 0.0807 0.9967 0.0020
vn 0.0806 0.9967 0.0018
vn 0.0000 0.0000 1.0000
vn 1.0000 0.0000 -0.0000
vn 0.0000 0.0000 -1.0000
vn -0.9848 0.0000 -0.1737
vn 0.0000 -1.0000 -0.0018
vn 0.0000 1.0000 0.0018
vn -1.0000 0.0000 -0.0000
# 15 vertex normals

vt 1.0000 0.0000 0.0000
vt 1.0000 1.0000 0.0000
vt 0.0000 1.0000 0.0000
vt 0.0000 0.0000 0.0000
vt 0.0000 0.5000 0.0000
vt 0.5000 0.0000 0.0000
vt 0.5000 1.0000 0.0000
# 7 texture coords

g Box018
usemtl wire_007007019
s 2
f 1/1/1 2/2/2 3/3/3 4/4/4 
s 4
f 5/4/5 6/1/6 7/2/7 8/5/8 
f 7/2/7 9/3/8 8/5/8 
s 8
f 1/4/9 4/1/9 6/2/9 5/3/9 
s 16
f 4/4/10 3/1/10 7/2/10 6/3/10 
s 32
f 3/4/11 2/1/11 9/2/11 7/3/11 
s 64
f 10/6/12 11/7/12 12/3/12 13/4/12 
s off
f 2/2/13 1/1/13 14/1/13 15/6/13 
f 2/2/13 15/6/13 16/4/13 
f 1/4/9 5/3/9 17/2/9 14/1/9 
f 8/5/14 18/7/14 17/2/14 5/4/14 
f 9/2/11 2/1/11 16/4/11 19/3/11 
s 64
f 14/1/15 17/2/15 18/7/15 15/6/15 
s off
f 9/3/14 19/3/14 18/7/14 8/5/14 
f 16/4/13 15/6/13 10/6/13 13/4/13 
f 15/6/9 18/7/9 11/7/9 10/6/9 
f 18/7/14 19/3/14 12/3/14 11/7/14 
f 19/3/11 16/4/11 13/4/11 12/3/11 
# 16 polygons - 2 triangles

