# 3ds Max Wavefront OBJ Exporter v0.97b - (c)2007 guruware
# File Created: 08.11.2014 18:41:29

mtllib couch.mtl

#
# object Couch_Base
#

v  -24.2684 0.0000 38.8340
v  9.1839 0.0000 38.8340
v  9.1839 0.0000 48.4570
v  -24.2684 0.0000 48.4570
v  9.1839 27.5946 48.4570
v  9.1839 27.5946 38.8340
v  -24.2684 27.5946 38.8340
v  -24.2684 27.5946 48.4570
v  9.1839 10.0851 48.4570
v  -24.2684 10.0851 48.4570
v  18.1950 0.0000 38.8340
v  18.1950 10.0851 38.8340
v  18.1950 10.0851 48.4570
v  18.1950 0.0000 48.4570
v  9.1839 0.0000 -52.3937
v  9.1839 10.0851 -52.3937
v  18.1950 10.0851 -52.3937
v  18.1950 0.0000 -52.3937
v  -24.2684 0.0000 -42.9533
v  -24.2684 10.0851 -42.9533
v  -24.2684 10.0851 -52.3937
v  -24.2684 0.0000 -52.3937
v  18.1950 0.0000 -42.9533
v  9.1839 0.0000 -42.9533
v  18.1950 27.5946 48.4570
v  18.1950 27.5946 38.8340
v  -24.2684 0.0000 29.2267
v  9.1839 0.0000 29.2268
v  9.1839 24.9416 36.6284
v  8.5293 24.9416 36.6061
v  8.7458 24.9416 38.8340
v  9.1839 24.9416 38.8340
v  18.1950 0.0000 29.2268
v  18.1950 10.0851 29.2267
v  -24.2684 10.0851 38.8340
v  18.1950 27.5946 29.2267
v  9.1839 27.5946 29.2267
v  -24.2684 10.0851 29.2268
v  -24.2684 0.0000 -33.2659
v  9.1839 0.0000 -33.2659
v  -14.4412 10.0851 -33.2659
v  -24.2684 10.0851 -33.2659
v  -0.6138 10.0851 -33.2659
v  9.1839 10.0851 -33.2659
v  -14.4345 10.0851 29.2267
v  3.9796 10.0851 29.2267
v  9.1839 10.0851 29.2267
v  18.1950 0.0000 -33.2659
v  18.1950 10.0851 -33.2659
v  18.1950 27.5946 -33.2659
v  9.1839 27.5946 -33.2659
v  9.1839 27.5946 -52.3937
v  -24.2684 27.5946 -52.3937
v  -24.2684 27.5946 -42.9533
v  9.1839 27.5946 -42.9533
v  18.1950 10.0851 -42.9533
v  18.1950 27.5946 -52.3937
v  18.1950 27.5946 -42.9533
v  9.1839 26.0028 -38.3142
v  -0.6564 26.0375 -37.7043
v  -1.7992 26.0028 -33.2659
v  9.1839 26.0028 -33.2659
v  9.1839 10.0851 -42.9533
v  9.1839 10.0851 38.8340
v  9.1839 13.0098 29.2267
v  9.1839 20.0756 29.2267
v  9.1839 24.9416 29.2267
v  9.1839 24.9416 32.6250
v  3.6227 13.0098 30.8989
v  -24.2684 24.9416 38.8340
v  -24.2684 13.0098 29.2268
v  -24.2684 24.9416 32.6360
v  -24.2684 24.9416 29.2268
v  -24.2684 20.9333 29.2268
v  -24.2684 24.9416 35.4885
v  -0.2112 24.9416 38.8340
v  -15.6519 24.9416 38.8340
v  -14.1744 14.3452 27.3139
v  -3.6850 20.2104 27.1647
v  -14.4345 20.6812 27.3680
v  3.8988 24.9416 29.2267
v  7.8124 24.9416 29.2267
v  -14.4345 24.9416 29.2267
v  -1.1393 24.9416 29.2267
v  -16.5834 24.9416 29.2267
v  -24.2685 15.2072 -33.2659
v  -24.2685 20.4171 -33.2659
v  -24.2684 26.0028 -33.2659
v  -24.2684 26.0028 -36.5267
v  -24.2684 26.0028 -39.5880
v  -24.2684 26.0028 -42.9533
v  -14.8180 14.9026 -31.7150
v  9.1839 26.0028 -42.9533
v  9.1839 14.1289 -33.2659
v  9.1839 20.6443 -33.2659
v  9.1839 26.0028 -41.0779
v  -11.4518 26.0028 -42.9533
v  -2.7404 26.0028 -42.9533
v  -3.0211 26.0028 -33.2659
v  -2.1990 20.5670 -32.5336
v  -1.2764 14.4661 -32.2252
v  -15.6862 26.0028 -33.2659
v  -15.2541 20.4783 -30.5851
v  -10.5160 26.0028 -33.2659
v  -16.2531 26.2613 32.6334
v  -4.5621 27.3507 32.6283
v  -11.1830 26.1584 -40.1708
v  8.1426 24.9416 32.6254
v  -15.9488 24.3022 35.7720
v  -0.4560 26.0723 36.2999
v  -2.5076 27.7750 -40.5572
v  -10.4331 27.2549 -37.2410
# 112 vertices

vn 0.0000 -1.0000 -0.0000
vn 0.0000 1.0000 -0.0000
vn 0.0000 0.0000 1.0000
vn 1.0000 0.0000 -0.0000
vn 0.0000 0.0000 -1.0000
vn -1.0000 0.0000 -0.0000
vn -1.0000 -0.0000 -0.0000
vn 0.0337 0.9993 0.0168
vn -0.0000 1.0000 0.0000
vn 1.0000 0.0000 0.0000
vn -1.0000 -0.0000 0.0000
vn 0.0000 1.0000 0.0000
vn -0.0000 1.0000 -0.0000
vn 0.0023 1.0000 0.0010
vn 0.0774 0.9703 0.2294
vn 0.0012 1.0000 0.0070
vn -0.0000 0.0000 1.0000
vn -1.0000 0.0000 0.0000
vn -0.0000 0.0000 -1.0000
vn -0.1481 0.2635 -0.9532
vn 0.0973 -0.0320 -0.9947
vn -0.0755 -0.2540 -0.9643
vn 0.0187 -0.2442 -0.9695
vn 0.1021 -0.2074 -0.9729
vn -0.1860 0.0003 -0.9826
vn 0.0000 0.3995 -0.9167
vn 0.1582 0.0000 -0.9874
vn 0.0000 0.3999 -0.9166
vn 0.0002 0.3993 -0.9168
vn -0.0000 -0.0000 -1.0000
vn -0.1609 0.3947 -0.9046
vn -0.0817 -0.1567 0.9843
vn 0.0000 -0.0000 -1.0000
vn 0.0000 0.1335 0.9910
vn 0.0642 0.0000 0.9979
vn 0.0812 0.0303 0.9962
vn 0.0136 -0.2697 0.9628
vn -0.1475 0.2266 0.9628
vn -0.2234 -0.1105 0.9684
vn 0.0000 0.4366 0.8997
vn 0.1448 0.1536 0.9775
vn 0.0911 -0.0593 0.9941
vn 0.0490 -0.1187 0.9917
vn -0.0619 0.9487 -0.3100
vn -0.1031 0.9935 -0.0489
vn -0.0629 0.9965 0.0559
vn 0.0000 0.9325 -0.3612
vn -0.0152 0.8194 -0.5730
vn -0.0462 0.9935 -0.1038
vn -0.0064 0.9987 -0.0506
vn -0.0071 1.0000 -0.0037
vn -0.0789 0.9761 -0.2026
vn 0.0811 0.9967 0.0018
vn 0.0594 0.9971 -0.0468
vn -0.0507 0.9848 -0.1663
vn -0.0334 0.9829 0.1812
vn -0.0197 0.9971 0.0739
vn 0.0461 0.9265 0.3734
vn 0.0743 0.9575 0.2788
vn 0.0833 0.9942 -0.0680
vn 0.0942 0.9945 0.0449
vn 0.0169 0.9945 -0.1032
vn -0.0192 0.9998 0.0041
vn 0.0174 0.9703 0.2412
vn -0.0428 0.9984 0.0370
vn 0.1303 0.9870 -0.0941
vn -0.0770 0.8368 -0.5420
vn 0.0000 1.0000 0.0078
vn 0.0000 0.8161 -0.5780
# 69 vertex normals

vt 1.0000 0.0954 0.0000
vt 0.2122 0.0954 0.0000
vt 0.2122 0.0000 0.0000
vt 1.0000 0.0000 0.0000
vt 0.7878 0.0000 0.0000
vt 0.7878 0.0954 0.0000
vt 0.0000 0.0954 0.0000
vt 0.0000 0.0000 0.0000
vt 0.7878 1.0000 0.0000
vt 0.0000 1.0000 0.0000
vt 0.0954 0.0000 0.0000
vt 0.0954 1.0000 0.0000
vt 0.2122 1.0000 0.0000
vt 0.0936 0.0000 0.0000
vt 0.0936 1.0000 0.0000
vt 0.0000 0.9064 0.0000
vt 0.2122 0.9064 0.0000
vt 1.0000 1.0000 0.0000
vt 1.0000 0.1907 0.0000
vt 0.2122 0.1907 0.0000
vt 0.7878 0.1173 0.0000
vt 0.7724 0.1175 0.0000
vt 0.7775 0.0954 0.0000
vt 0.1907 0.0000 0.0000
vt 0.1907 1.0000 0.0000
vt 0.9046 1.0000 0.0000
vt 0.9046 0.0000 0.0000
vt 0.7878 0.1907 0.0000
vt 0.8093 1.0000 0.0000
vt 0.8093 0.0000 0.0000
vt 0.0000 0.1907 0.0000
vt 1.0000 0.8103 0.0000
vt 0.2122 0.8103 0.0000
vt 0.2314 0.8103 0.0000
vt 0.0000 0.8103 0.0000
vt 0.5571 0.8103 0.0000
vt 0.7878 0.8103 0.0000
vt 0.2316 0.1907 0.0000
vt 0.6652 0.1907 0.0000
vt 0.8103 0.0000 0.0000
vt 0.8103 1.0000 0.0000
vt 0.1897 0.0000 0.0000
vt 0.1897 1.0000 0.0000
vt 1.0000 0.9064 0.0000
vt 0.7878 0.9064 0.0000
vt 0.9064 1.0000 0.0000
vt 0.9064 0.0000 0.0000
vt 0.7878 0.8604 0.0000
vt 0.5190 0.8543 0.0000
vt 0.5291 0.8103 0.0000
vt 0.7878 0.1570 0.0000
vt 0.6649 0.1907 0.0000
vt 0.6500 0.8407 0.0000
vt 0.0000 0.1569 0.0000
vt 0.2184 0.4090 0.0000
vt 0.0000 0.1286 0.0000
vt 0.5665 0.0954 0.0000
vt 0.2029 0.0954 0.0000
vt 0.6639 0.1907 0.0000
vt 0.6633 0.1907 0.0000
vt 0.7555 0.1907 0.0000
vt 0.5447 0.1907 0.0000
vt 0.1810 0.1907 0.0000
vt 0.1286 0.9390 0.0000
vt 0.0666 0.8769 0.0000
vt 0.0000 0.8427 0.0000
vt 0.0000 0.8730 0.0000
vt 0.2226 0.8103 0.0000
vt 0.7878 0.8878 0.0000
vt 0.3018 0.9064 0.0000
vt 0.5070 0.9064 0.0000
vt 0.5004 0.8103 0.0000
vt 0.5197 0.8103 0.0000
vt 0.5415 0.8103 0.0000
vt 0.2021 0.8103 0.0000
vt 0.2123 0.8103 0.0000
vt 0.3239 0.8103 0.0000
vt 0.1888 0.1569 0.0000
vt 0.5524 0.1570 0.0000
vt 0.3082 0.8788 0.0000
vt 0.7633 0.1570 0.0000
vt 0.1959 0.1258 0.0000
vt 0.5608 0.1205 0.0000
vt 0.5125 0.8826 0.0000
vt 0.3148 0.8498 0.0000
# 85 texture coords

g Couch_Base
usemtl wire_228153184
s 2
f 1/1/1 2/2/1 3/3/1 4/4/1 
s 4
f 5/5/2 6/6/2 7/7/2 8/8/2 
s 8
f 3/5/3 9/9/3 10/10/3 4/8/3 
s 16
f 11/11/4 12/12/4 13/10/4 14/8/4 
s 32
f 15/3/5 16/13/5 17/10/5 18/8/5 
s 64
f 19/14/6 20/15/7 21/10/6 22/8/6 
s 2
f 18/10/1 23/16/1 24/17/1 15/13/1 
s 4
f 25/4/2 26/1/2 6/6/2 5/5/2 
s 8
f 14/4/3 13/18/3 9/9/3 3/5/3 
s 32
f 22/4/5 21/18/5 16/13/5 15/3/5 
s 2
f 27/19/1 28/20/1 2/2/1 1/1/1 
s 4
f 29/21/2 30/22/8 31/23/9 32/6/2 
s 16
f 33/24/10 34/25/10 12/12/4 11/11/4 
s 64
f 4/4/6 10/18/6 35/26/6 1/27/6 
s 2
f 14/8/1 3/3/1 2/2/1 11/7/1 
s 4
f 36/19/2 37/28/2 6/6/2 26/1/2 
s 64
f 1/27/6 35/26/6 38/29/11 27/30/11 
s 2
f 11/7/1 2/2/1 28/20/1 33/31/1 
f 39/32/1 40/33/1 28/20/1 27/19/1 
s 4
f 41/34/2 42/35/2 38/31/2 43/36/12 
f 44/37/12 43/36/12 38/31/2 45/38/13 
f 44/37/12 45/38/13 46/39/2 47/28/2 
s 16
f 48/40/4 49/41/4 34/25/10 33/24/10 
s 4
f 50/32/2 51/37/2 37/28/2 36/19/2 
s 64
f 39/42/7 42/43/7 20/15/7 19/14/6 
s 2
f 48/35/1 40/33/1 24/17/1 23/16/1 
f 22/18/1 15/13/1 24/17/1 19/44/1 
s 4
f 52/9/2 53/10/2 54/16/2 55/45/2 
s 16
f 18/4/4 17/18/4 56/46/4 23/47/4 
s 4
f 57/18/2 52/9/2 55/45/2 58/44/2 
s 2
f 19/44/1 24/17/1 40/33/1 39/32/1 
s 4
f 59/48/14 60/49/15 61/50/16 62/37/13 
s 16
f 23/47/4 56/46/4 49/41/4 48/40/4 
s 4
f 58/44/2 55/45/2 51/37/2 50/32/2 
s 64
f 27/30/11 38/29/11 42/43/7 39/42/7 
s 2
f 33/31/1 28/20/1 40/33/1 48/35/1 
s off
f 10/10/3 9/9/3 5/5/3 8/8/3 
f 9/9/3 13/18/3 25/4/3 5/5/3 
f 13/10/4 12/12/4 26/1/4 25/4/4 
f 12/12/4 34/25/4 36/19/4 26/1/4 
f 34/25/4 49/41/4 50/32/4 36/19/4 
f 49/41/4 56/46/4 58/44/4 50/32/4 
f 56/46/4 17/18/4 57/18/4 58/44/4 
f 17/10/5 16/13/5 52/9/5 57/18/5 
f 16/13/5 21/18/5 53/10/5 52/9/5 
f 21/10/6 20/15/6 54/16/6 53/10/6 
f 20/16/17 63/45/17 55/45/17 54/16/17 
f 63/45/6 44/37/6 51/37/6 55/45/6 
f 44/37/18 47/28/18 37/28/18 51/37/18 
f 47/28/6 64/6/6 6/6/6 37/28/6 
f 64/6/19 35/7/19 7/7/19 6/6/19 
f 35/26/6 10/18/6 8/8/6 7/7/6 
f 64/6/4 47/28/4 65/28/4 66/28/4 
f 64/6/4 66/28/4 67/28/4 68/51/4 
f 64/6/4 68/51/4 29/21/4 32/6/4 
f 46/39/20 69/52/20 65/28/20 47/28/20 
f 38/29/11 35/26/11 70/7/11 71/53/11 
f 72/54/6 73/31/6 74/55/6 75/56/6 
f 70/7/6 75/56/6 74/55/6 71/53/6 
f 35/7/3 64/6/3 32/6/3 31/23/3 
f 35/7/3 31/23/3 76/57/3 77/58/3 
f 35/7/3 77/58/3 70/7/3 
f 45/38/21 78/38/21 69/52/21 46/39/21 
f 38/31/22 71/31/22 78/38/22 45/38/22 
f 69/52/23 79/59/23 66/28/23 65/28/23 
f 78/38/24 80/38/24 79/59/24 69/52/24 
f 71/31/25 74/31/25 80/38/25 78/38/25 
f 79/59/26 81/60/26 82/61/26 67/28/26 
f 79/59/27 67/28/27 66/28/27 
f 80/38/28 83/38/28 84/62/28 81/60/28 
f 80/38/29 81/60/29 79/59/29 
f 74/31/30 73/31/30 85/63/30 83/38/30 
f 74/31/31 83/38/31 80/38/31 
f 20/15/7 42/43/7 86/64/7 87/65/7 
f 20/15/6 87/65/6 88/35/6 89/66/6 
f 20/15/6 89/66/6 90/67/6 91/16/6 
f 42/35/32 41/34/32 92/68/32 86/35/32 
f 44/37/4 63/45/4 93/45/4 94/37/4 
f 59/48/4 62/37/4 95/37/4 96/69/4 
f 93/45/4 96/69/4 95/37/4 94/37/4 
f 63/45/33 20/16/33 91/16/33 97/70/33 
f 63/45/5 97/70/5 98/71/5 93/45/5 
f 61/50/34 99/72/34 100/73/34 62/37/34 
f 95/37/35 62/37/35 100/73/35 
f 95/37/36 100/73/36 101/74/36 94/37/36 
f 41/34/37 43/36/37 101/74/37 92/68/37 
f 102/75/38 88/35/38 87/35/38 103/76/38 
f 103/76/39 87/35/39 86/35/39 92/68/39 
f 104/77/40 102/75/40 103/76/40 99/72/40 
f 99/72/41 103/76/41 100/73/41 
f 100/73/42 103/76/42 92/68/42 101/74/42 
f 43/36/43 44/37/43 94/37/43 101/74/43 
s 4
f 85/63/44 73/31/2 72/54/45 105/78/46 
f 83/38/47 85/63/44 105/78/46 84/62/48 
f 84/62/48 105/78/46 106/79/49 
f 97/70/50 91/16/2 90/67/51 107/80/52 
f 68/51/2 108/81/53 30/22/8 29/21/2 
f 70/7/54 77/58/55 109/82/56 75/56/57 
f 77/58/55 76/57/58 110/83/59 109/82/56 
f 75/56/57 109/82/56 105/78/46 72/54/45 
f 109/82/56 110/83/59 106/79/49 105/78/46 
f 67/28/2 82/61/60 108/81/53 68/51/2 
f 96/69/61 111/84/62 60/49/15 59/48/14 
f 89/66/63 88/35/2 102/75/2 104/77/64 
f 89/66/63 104/77/64 112/85/65 
f 89/66/63 112/85/65 107/80/52 90/67/51 
f 93/45/66 98/71/67 111/84/62 96/69/61 
f 30/22/8 110/83/59 76/57/58 31/23/9 
f 60/49/15 112/85/65 104/77/64 99/72/68 
f 60/49/15 99/72/68 61/50/16 
f 108/81/53 106/79/49 110/83/59 30/22/8 
f 81/60/69 84/62/48 106/79/49 82/61/60 
f 82/61/60 106/79/49 108/81/53 
f 111/84/62 107/80/52 112/85/65 60/49/15 
f 98/71/67 97/70/50 107/80/52 111/84/62 
# 105 polygons - 10 triangles

#
# object Box001
#

v  12.4826 7.4605 -25.1997
v  12.4826 7.4605 -32.2863
v  19.5693 7.4605 -32.2863
v  19.5693 7.4605 -25.1997
v  12.4826 20.4527 -25.1997
v  19.5693 20.4527 -25.1997
v  19.5693 20.4527 -32.2863
v  12.4826 20.4527 -32.2863
# 8 vertices

vn 0.0000 -1.0000 -0.0000
vn 0.0000 1.0000 -0.0000
vn 0.0000 0.0000 1.0000
vn 1.0000 0.0000 -0.0000
vn 0.0000 0.0000 -1.0000
vn -1.0000 0.0000 -0.0000
# 6 vertex normals

vt 1.0000 0.0000 0.0000
vt 1.0000 1.0000 0.0000
vt 0.0000 1.0000 0.0000
vt 0.0000 0.0000 0.0000
# 4 texture coords

g Box001
usemtl wire_153228153
s 2
f 113/86/70 114/87/70 115/88/70 116/89/70 
s 4
f 117/89/71 118/86/71 119/87/71 120/88/71 
s 8
f 113/89/72 116/86/72 118/87/72 117/88/72 
s 16
f 116/89/73 115/86/73 119/87/73 118/88/73 
s 32
f 115/89/74 114/86/74 120/87/74 119/88/74 
s 64
f 114/89/75 113/86/75 117/87/75 120/88/75 
# 6 polygons

